<?xml version="1.0" standalone="no"?>
<!DOCTYPE svg PUBLIC "-//W3C//DTD SVG 20010904//EN"
 "http://www.w3.org/TR/2001/REC-SVG-20010904/DTD/svg10.dtd">
<svg version="1.0" xmlns="http://www.w3.org/2000/svg"
 width="1024.000000pt" height="1024.000000pt" viewBox="0 0 1024.000000 1024.000000"
 preserveAspectRatio="xMidYMid meet">

<g transform="translate(0.000000,1024.000000) scale(0.100000,-0.100000)"
fill="#000000" stroke="none">
<path d="M0 5120 l0 -5120 5120 0 5120 0 0 5120 0 5120 -5120 0 -5120 0 0
-5120z m4990 3440 c372 -21 601 -61 947 -164 134 -40 427 -156 547 -216 53
-27 97 -42 135 -45 31 -3 74 -7 96 -10 22 -2 87 -9 145 -15 238 -25 575 -82
720 -122 131 -36 325 -105 399 -143 28 -14 55 -25 61 -25 19 0 153 -105 207
-162 134 -141 158 -317 114 -855 -12 -156 -25 -188 -99 -251 l-51 -42 -122 0
-122 0 24 26 c13 14 72 50 131 81 97 50 108 59 112 87 3 17 8 153 11 301 6
270 -4 445 -26 488 -20 37 -100 116 -169 167 -218 162 -674 283 -1335 355
l-250 28 -65 38 c-135 78 -436 191 -676 253 -403 103 -1110 142 -1572 86 -359
-44 -715 -147 -1017 -295 -184 -90 -313 -167 -610 -366 -222 -149 -270 -175
-500 -271 l-80 -33 1 -65 c9 -379 23 -619 39 -665 20 -58 60 -139 86 -177 11
-14 19 -29 19 -32 0 -3 -89 -4 -197 -3 -109 2 -241 1 -293 -2 l-95 -6 -3 -47
c-2 -27 -7 -48 -11 -48 -5 0 -11 -8 -13 -18 -5 -17 -12 -18 -69 -11 -35 4
-187 10 -336 14 -150 4 -273 11 -273 14 0 20 388 54 553 49 59 -2 107 1 107 6
0 5 -9 23 -20 41 -19 31 -22 32 -111 38 -51 4 -178 7 -283 7 -213 0 -236 3
-229 29 4 16 26 19 221 24 119 4 363 7 541 7 179 0 327 2 330 5 2 3 -3 20 -11
39 l-16 33 -434 7 c-559 8 -638 13 -638 36 0 26 70 30 582 30 l459 0 -3 37
c-3 35 -5 38 -43 45 -22 3 -179 7 -349 7 -187 1 -316 5 -327 12 -15 8 -17 14
-9 29 10 19 23 20 361 20 270 0 351 3 354 13 3 6 1 26 -3 42 l-8 30 -405 8
c-551 10 -583 12 -587 29 -2 13 40 16 275 21 153 4 350 7 439 7 89 0 189 3
223 6 61 7 61 7 61 39 0 40 -12 45 -82 38 -29 -3 -226 1 -438 7 -212 7 -411
12 -444 11 -44 -2 -57 1 -54 11 3 7 20 16 39 20 19 5 247 11 507 15 l473 6 -3
41 -3 41 -475 6 c-603 8 -550 5 -550 28 0 28 64 31 571 31 l449 0 0 45 0 45
-500 0 -500 0 0 25 c0 23 3 25 53 26 28 1 261 4 517 8 425 5 468 8 490 24 14
10 40 29 59 42 l34 25 -169 2 c-93 1 -284 0 -424 -2 -141 -1 -266 1 -278 4
-27 9 -29 36 -3 36 11 0 21 6 23 13 4 9 120 13 519 17 496 5 515 6 549 26 19
11 36 27 38 35 4 22 -168 29 -798 30 -283 0 -535 4 -560 7 -33 5 -46 12 -48
26 -2 10 1 21 6 25 6 3 271 6 589 5 318 -1 673 1 788 5 l210 6 110 76 c328
227 663 397 980 499 119 38 448 114 560 130 209 29 606 38 925 20z m165 -270
c157 -13 371 -45 515 -76 119 -25 429 -112 443 -124 4 -4 -149 -9 -340 -12
l-348 -6 -100 38 c-212 80 -386 129 -555 155 -58 10 -112 21 -120 26 -21 12
357 11 505 -1z m-1059 -104 c71 -35 179 -97 239 -137 l110 -72 -225 -33 c-124
-18 -306 -47 -405 -65 -99 -17 -192 -34 -207 -36 -25 -5 -26 -4 -18 28 34 148
97 316 127 341 17 14 130 35 204 37 37 1 69 -11 175 -63z m-542 -122 c-26 -60
-57 -138 -69 -174 l-22 -65 -64 -12 c-35 -6 -113 -19 -174 -28 -60 -9 -204
-37 -319 -61 -115 -24 -213 -44 -218 -44 -48 0 286 229 473 325 125 64 432
188 437 175 1 -4 -18 -56 -44 -116z m2401 -104 c257 -14 532 -38 635 -55 242
-42 702 -138 810 -170 l85 -25 -100 5 c-55 3 -186 8 -292 12 -191 6 -233 13
-203 33 8 5 13 10 10 10 -8 0 -226 56 -305 78 -72 20 -215 40 -204 28 3 -3 48
-19 100 -34 52 -16 121 -41 154 -57 33 -15 80 -33 105 -40 l45 -13 -36 -1
c-20 -1 -65 10 -101 23 -35 13 -133 39 -218 56 -85 18 -179 38 -209 46 -29 7
-130 28 -225 46 -155 29 -189 32 -371 32 -159 1 -220 -3 -298 -18 -111 -22
-112 -21 40 -65 87 -26 203 -100 268 -173 77 -86 162 -281 178 -408 l6 -45
-15 50 c-82 272 -236 439 -471 513 -130 42 -221 56 -308 49 -148 -13 -265 -70
-380 -187 l-59 -60 -71 0 c-39 0 -120 -7 -181 -15 -572 -76 -729 -98 -854
-121 -80 -14 -188 -32 -240 -40 -52 -8 -124 -23 -160 -35 -118 -37 -199 -96
-108 -78 24 4 63 8 88 8 l45 -1 -43 -13 c-23 -8 -76 -18 -118 -23 -74 -8 -77
-8 -111 19 -83 66 -225 130 -318 142 l-30 4 33 2 c17 0 32 6 32 11 0 6 26 10
58 10 59 1 119 7 312 34 281 38 371 49 465 56 100 8 314 42 348 55 9 4 17 12
17 18 0 16 -245 1 -310 -19 -30 -9 -107 -20 -170 -25 -303 -22 -673 -74 -715
-99 -19 -11 -77 -24 -155 -34 -125 -16 -261 -53 -283 -76 -10 -10 -7 -11 13
-6 14 3 73 11 132 18 185 19 299 -5 431 -93 79 -52 172 -200 216 -343 28 -90
26 -115 -2 -46 -40 95 -139 253 -192 305 -28 28 -79 65 -113 83 -52 28 -77 34
-163 42 -89 7 -109 6 -167 -12 -57 -17 -75 -29 -124 -81 l-58 -60 0 50 c0 28
-3 77 -6 109 l-6 59 63 29 c123 55 154 64 589 156 203 43 802 140 1140 185
107 14 209 28 225 30 17 2 102 13 190 25 88 11 257 34 375 50 118 16 247 31
285 35 39 3 144 14 235 25 337 40 473 45 765 30z m-15 -173 c144 -43 412 -124
464 -141 49 -15 55 -30 20 -52 -24 -16 -36 -17 -128 -6 -149 17 -259 53 -460
153 -235 115 -238 117 -232 128 6 10 124 -19 336 -82z m-728 -28 c53 -14 150
-82 208 -147 66 -74 143 -231 175 -357 24 -93 46 -298 31 -284 -4 4 -17 58
-30 120 -30 144 -59 223 -121 328 -61 102 -161 198 -254 244 -62 30 -73 32
-171 32 -99 0 -109 -2 -165 -32 -107 -56 -206 -176 -254 -308 -27 -75 -65
-234 -75 -315 -2 -19 -3 26 -1 100 2 125 5 142 36 231 84 234 228 374 411 399
67 9 150 5 210 -11z m-4332 -108 c0 -6 -5 -13 -11 -17 -8 -4 -7 -9 2 -15 11
-6 10 -9 -3 -14 -31 -12 -53 -1 -56 28 -3 25 -1 27 32 27 20 0 36 -4 36 -9z
m7021 -81 c32 -9 69 -36 58 -43 -2 -1 -318 0 -702 3 -686 5 -698 5 -667 24 20
11 65 21 123 26 126 12 1142 3 1188 -10z m-3331 -28 c0 -4 -7 -17 -14 -28 -13
-18 -29 -22 -133 -27 -65 -3 -176 -15 -247 -27 -71 -11 -186 -27 -255 -35 -69
-8 -141 -17 -158 -21 -20 -4 -33 -3 -33 4 0 16 26 33 43 26 8 -3 18 0 22 5 3
6 10 9 15 6 5 -3 19 -1 32 4 13 6 46 13 73 17 39 5 46 8 30 15 -16 6 -17 8 -3
8 9 1 20 -4 23 -9 4 -6 10 -8 14 -5 5 2 44 11 87 19 43 9 102 20 129 26 28 6
106 13 174 15 68 3 126 7 129 10 8 8 72 6 72 -3z m1411 -35 c89 -57 84 -39 80
-311 -3 -234 -4 -242 -28 -291 -30 -58 -83 -135 -94 -135 -4 0 -3 16 3 36 6
22 8 157 6 338 l-3 301 -26 47 c-40 70 -29 73 62 15z m-826 12 c72 -27 162
-110 203 -186 116 -219 87 -513 -68 -677 -98 -104 -257 -154 -346 -108 -56 28
-146 127 -183 200 -88 174 -82 419 15 603 85 161 229 224 379 168z m2852 -71
c9 -10 15 -19 12 -22 -7 -6 -365 -9 -979 -7 -537 1 -563 2 -547 19 25 24 198
29 914 28 537 -1 584 -2 600 -18z m-3497 -43 c0 -16 -17 -19 -44 -9 -26 10
-18 24 14 24 20 0 30 -5 30 -15z m-150 -15 c0 -26 -4 -27 -120 -39 -52 -6
-171 -20 -265 -31 -283 -35 -295 -35 -295 -16 0 10 4 15 8 12 5 -3 24 -1 43 4
46 13 198 31 279 34 87 4 169 14 200 26 26 11 102 27 133 29 11 1 17 -6 17
-19z m-740 -2 c0 -11 -103 -30 -145 -26 l-40 4 50 15 c49 16 135 20 135 7z
m4540 -240 c0 -249 -6 -324 -26 -332 -12 -4 -14 42 -14 274 0 273 0 280 20
280 19 0 20 -7 20 -222z m-322 195 c187 -6 202 -8 202 -25 0 -17 -29 -18 -781
-18 -738 0 -780 1 -777 18 3 15 25 17 233 22 376 9 906 10 1123 3z m-5394 -50
c149 -41 268 -250 265 -463 l-1 -55 -14 81 c-49 291 -255 468 -416 356 -77
-53 -119 -114 -170 -247 l-19 -50 6 60 c12 121 107 260 215 313 54 26 57 27
134 5z m1906 -38 c0 -8 -3 -15 -7 -15 -5 0 -95 -9 -202 -20 -107 -11 -211 -20
-230 -20 l-36 1 28 15 c18 9 40 13 55 10 21 -5 24 -4 12 5 -11 8 -2 9 38 5 28
-3 52 -1 52 3 0 7 154 26 248 29 31 2 42 -2 42 -13z m3538 -32 c129 -6 142 -8
142 -25 0 -17 -26 -18 -762 -16 -714 3 -763 4 -766 20 -3 16 13 18 190 21 430
6 1061 7 1196 0z m-2051 -25 c-3 -8 -6 -5 -6 6 -1 11 2 17 5 13 3 -3 4 -12 1
-19z m-3362 -102 c49 -38 92 -117 106 -199 23 -125 -18 -297 -82 -351 -37 -32
-171 -46 -215 -23 -93 48 -128 162 -104 332 16 112 57 195 120 243 39 30 50
34 92 30 31 -3 59 -14 83 -32z m1658 27 c-13 -2 -33 -2 -45 0 -13 2 -3 4 22 4
25 0 35 -2 23 -4z m-100 -10 c-7 -2 -19 -2 -25 0 -7 3 -2 5 12 5 14 0 19 -2
13 -5z m3974 -16 c7 -4 10 -13 7 -20 -3 -9 -168 -12 -727 -12 -397 0 -728 4
-734 8 -33 21 -1 27 160 30 315 6 1282 2 1294 -6z m-321 -181 c-1 -46 -3 -86
-6 -89 -3 -2 -130 -2 -282 1 l-277 5 -6 28 c-4 16 -3 53 0 84 l7 55 283 0 282
0 -1 -84z m-663 54 c5 -19 0 -20 -77 -20 -46 0 -130 -3 -187 -6 -94 -6 -107
-5 -124 12 -18 19 -16 19 116 24 277 12 266 12 272 -10z m945 6 c1 -2 0 -10
-4 -19 -4 -13 -26 -16 -105 -19 l-99 -3 0 29 0 29 102 -7 c57 -4 104 -9 106
-10z m-938 -132 l0 -27 -92 6 c-51 3 -111 12 -133 19 l-40 13 85 6 c184 12
180 12 180 -17z m854 17 c17 -7 16 -8 -7 -24 -15 -10 -46 -17 -72 -17 -41 0
-45 2 -45 25 0 24 3 25 53 24 28 0 60 -4 71 -8z m-1175 -100 c115 -34 251 -41
654 -37 226 3 355 2 317 -3 -100 -13 -568 -17 -835 -7 -201 7 -257 6 -345 -7
-373 -57 -448 -67 -489 -66 -45 1 -45 1 44 30 200 65 391 102 549 108 21 0 69
-8 105 -18z m-2199 -42 c8 -23 22 -51 32 -64 l17 -22 -137 -7 c-455 -22 -1451
-41 -1362 -26 30 5 116 19 190 31 74 12 160 27 190 35 157 40 440 69 795 80
116 3 212 8 214 10 2 2 14 4 26 4 17 0 25 -10 35 -41z m-2705 -369 c88 -4 507
-6 930 -4 483 2 800 -1 850 -7 102 -13 242 -60 319 -106 178 -108 284 -311
275 -525 -4 -73 -9 -94 -42 -161 -60 -121 -161 -191 -329 -228 -51 -11 -94
-22 -96 -23 -1 -2 28 -6 65 -10 94 -10 148 -24 218 -57 101 -49 168 -125 206
-236 32 -92 32 -247 0 -342 -49 -142 -171 -272 -326 -346 -177 -84 -91 -78
-1243 -79 l-1023 -1 99 95 c54 52 106 106 115 120 15 23 15 58 5 390 -11 388
-4 1144 12 1220 8 39 6 49 -12 75 -48 68 -155 189 -193 217 -32 24 -35 29 -15
24 14 -4 97 -11 185 -16z m2795 0 c275 -9 1011 -6 1096 5 27 3 65 8 84 11 29
4 10 -12 -111 -93 -81 -54 -175 -124 -210 -155 l-64 -58 3 -762 3 -763 52 -53
c64 -66 141 -122 273 -199 l100 -58 -767 0 c-422 0 -765 3 -763 6 2 4 61 45
131 92 140 93 236 174 257 216 11 21 14 161 12 784 l-2 758 -91 72 c-50 40
-141 103 -202 141 -61 38 -111 71 -111 74 0 2 10 1 23 -2 12 -4 141 -11 287
-16z m3255 -11 c99 -14 231 -51 293 -83 48 -24 128 -99 163 -152 28 -43 56
-134 84 -276 14 -70 28 -135 32 -144 5 -14 2 -16 -18 -10 -86 27 -211 29 -595
10 l-121 -7 -7 51 c-8 62 -40 103 -95 126 -34 13 -96 16 -393 16 -324 1 -357
0 -401 -17 -63 -25 -100 -61 -134 -131 l-27 -57 2 -380 2 -380 31 -62 c61
-125 94 -133 549 -133 361 0 400 4 447 44 26 23 27 27 31 150 l4 126 -193 0
-194 0 3 111 c6 155 0 170 -103 259 -47 40 -85 75 -85 76 0 1 19 -5 43 -13 35
-12 130 -15 542 -16 275 -1 560 2 633 6 148 9 157 5 101 -49 -59 -56 -59 -53
-67 -446 -8 -361 -8 -363 -33 -418 -70 -149 -235 -258 -454 -301 -54 -10 -205
-13 -675 -14 -549 0 -613 2 -690 18 -222 48 -397 161 -487 314 -14 24 -37 76
-51 116 l-25 72 2 510 c2 395 5 526 16 580 46 223 233 410 485 486 73 22 87
23 653 25 318 1 581 4 584 7 5 6 26 4 148 -14z m-6330 -85 c14 -31 41 -78 61
-105 19 -26 34 -56 33 -66 -1 -10 -2 -400 -3 -868 l-1 -850 -41 -55 c-23 -30
-48 -61 -57 -69 -11 -9 -17 -29 -17 -57 0 -46 3 -51 42 -58 15 -2 35 -9 45
-15 31 -16 93 -89 93 -109 0 -9 -21 -51 -45 -92 -67 -110 -70 -128 -57 -283
15 -161 15 -344 2 -495 -12 -139 -6 -166 61 -266 85 -128 176 -194 321 -232
56 -14 135 -16 686 -15 434 2 622 -1 617 -8 -4 -7 7 -11 31 -11 l37 0 -6 -40
-5 -39 52 -4 c30 -3 24 -3 -16 -2 -37 1 -65 -2 -62 -6 3 -5 -394 -9 -900 -9
l-906 0 -1 513 c0 281 0 1113 1 1848 1 1088 -1 1338 -12 1346 -18 14 -167 23
-435 25 l-223 2 0 28 0 28 238 1 c130 1 275 4 322 8 47 5 93 9 103 9 12 2 25
-15 42 -54z m-273 -1131 c42 -38 18 -53 -83 -53 -52 0 -69 -3 -69 -14 0 -19
22 -26 84 -26 29 0 60 -6 70 -13 25 -19 33 -90 12 -122 -15 -23 -22 -25 -101
-25 -85 0 -135 13 -135 36 0 7 8 26 18 43 14 25 15 34 5 51 -17 26 -16 90 1
112 9 13 32 18 92 21 43 1 81 4 83 5 3 1 13 -5 23 -15z m7852 -5 c16 -27 20
-202 4 -231 -8 -15 -21 -17 -106 -15 l-97 3 -1 110 c0 61 4 118 8 127 7 14 25
18 86 21 42 1 80 4 84 5 4 1 14 -8 22 -20z m276 -13 c29 -30 33 -38 22 -53
-35 -49 -37 -63 -12 -84 20 -16 22 -23 14 -46 -14 -40 -48 -52 -148 -52 l-89
0 7 53 c4 28 7 87 6 129 l-1 77 53 4 c29 2 67 4 84 5 23 2 38 -6 64 -33z m278
8 c4 -24 -6 -28 -90 -38 -45 -5 -58 -10 -58 -23 0 -14 10 -17 63 -17 l62 0 3
-32 3 -33 -65 0 c-58 0 -66 -2 -66 -19 0 -16 11 -20 75 -26 71 -6 75 -8 75
-31 0 -24 0 -24 -109 -24 l-110 0 1 130 0 129 92 4 c123 4 121 5 124 -20z
m-8638 -7 c0 -31 -19 -36 -157 -36 -106 0 -113 -1 -113 -20 0 -17 7 -20 53
-21 191 -2 202 -3 202 -24 0 -18 -9 -20 -117 -26 -122 -7 -138 -11 -138 -35 0
-11 18 -14 88 -14 99 0 113 -5 101 -37 -7 -21 -15 -22 -129 -25 -67 -2 -124
-1 -126 1 -2 2 -4 62 -4 133 l0 128 170 0 170 0 0 -24z m3181 -1051 l306 0 58
-130 c33 -71 126 -269 208 -440 82 -170 173 -365 202 -433 49 -112 130 -244
147 -239 19 6 115 82 133 105 19 26 20 45 23 482 2 250 0 465 -3 478 -8 33
-71 98 -137 143 -32 22 -58 42 -58 45 0 3 6 2 13 -3 6 -4 311 -10 677 -13 739
-7 721 -5 813 -75 34 -26 56 -55 84 -112 l38 -77 0 -165 c0 -152 -2 -170 -23
-212 -29 -60 -81 -111 -148 -146 -30 -15 -54 -33 -54 -39 0 -18 70 -121 164
-242 66 -84 102 -120 143 -145 53 -32 53 -32 26 -38 -15 -4 -135 -7 -265 -8
l-237 -1 -121 163 c-66 89 -131 177 -145 195 l-26 32 -164 0 -165 0 0 -106 c0
-126 8 -144 103 -229 l62 -55 -657 1 c-362 0 -660 5 -663 9 -6 10 52 60 71 60
20 0 17 29 -8 80 l-23 45 -361 3 -361 2 -24 -62 -23 -61 23 -16 c13 -9 42 -26
65 -38 30 -17 35 -23 21 -24 -55 -4 -661 4 -665 8 -2 2 16 21 40 41 25 20 58
50 73 66 30 31 95 160 146 287 32 81 139 325 275 626 47 105 86 194 86 197 0
3 -12 16 -27 30 l-27 25 39 -7 c22 -4 178 -7 346 -7z m-1196 -19 c134 -38 214
-111 253 -230 22 -68 40 -206 26 -206 -5 1 -27 9 -49 20 -34 16 -63 19 -190
20 -83 0 -164 -4 -181 -9 l-32 -9 -5 46 c-6 57 -38 88 -100 97 -24 4 -131 5
-238 3 -296 -5 -289 3 -289 -351 0 -165 4 -239 13 -257 7 -14 30 -34 52 -45
36 -18 60 -20 260 -20 191 1 224 3 253 18 37 20 52 51 52 104 0 30 3 34 18 28
45 -19 129 -26 289 -23 l176 3 -6 -68 c-7 -78 -46 -172 -95 -228 -42 -48 -112
-84 -223 -114 -92 -24 -101 -25 -457 -25 -299 0 -376 3 -435 16 -157 35 -254
103 -306 214 -26 55 -26 56 -29 355 -4 313 2 376 39 463 45 104 141 178 272
207 98 22 849 15 932 -9z m5139 5 c147 -35 216 -117 257 -303 11 -50 18 -92
16 -94 -2 -2 -21 1 -43 8 -25 7 -108 9 -231 6 -185 -5 -193 -4 -193 14 0 35
-29 76 -61 87 -46 16 -476 15 -508 -2 -13 -6 -33 -24 -44 -39 -17 -23 -19 -34
-11 -65 13 -53 55 -73 154 -73 94 0 406 -25 565 -45 195 -25 264 -53 312 -124
35 -51 45 -105 47 -231 1 -107 -1 -120 -28 -177 -47 -103 -128 -164 -264 -198
-53 -14 -123 -16 -490 -13 l-427 4 -78 26 c-162 54 -225 131 -241 294 l-7 61
48 6 c26 4 134 7 238 8 l190 1 5 -28 c3 -15 18 -36 33 -48 27 -20 43 -21 266
-24 234 -3 237 -3 271 20 30 20 35 30 35 62 0 75 -47 89 -355 106 -332 19
-490 45 -573 94 -101 60 -144 166 -134 326 12 202 119 325 304 348 96 12 891
6 947 -7z m-1464 -1465 c0 -3 -4 -8 -10 -11 -5 -3 -10 -1 -10 4 0 6 5 11 10
11 6 0 10 -2 10 -4z m90 -54 c28 -8 8 -10 -107 -11 -128 -1 -169 6 -130 23 20
8 199 0 237 -12z m-1357 -19 c-57 -2 -149 -2 -205 0 -57 1 -11 3 102 3 113 0
159 -2 103 -3z m1530 0 c-18 -2 -48 -2 -65 0 -18 2 -4 4 32 4 36 0 50 -2 33
-4z m-3435 -206 c-3 -29 -6 -32 -40 -35 l-38 -3 0 -110 0 -109 -29 0 c-25 0
-29 4 -35 38 -3 20 -6 70 -6 110 l0 72 -40 0 c-34 0 -41 4 -46 25 -12 48 -5
50 120 47 l117 -3 -3 -32z m812 18 c27 -24 25 -49 -5 -65 -22 -12 -27 -11 -45
5 -25 23 -85 13 -101 -17 -15 -28 -5 -99 17 -115 21 -16 68 -17 95 -3 30 16
23 30 -16 30 -27 0 -35 4 -35 18 0 38 14 44 84 37 l66 -7 0 -34 c0 -51 -15
-79 -57 -104 -53 -31 -117 -31 -165 1 -50 33 -68 67 -68 132 0 60 20 94 74
129 39 24 125 21 156 -7z m270 -126 l0 -139 -35 0 -35 0 0 143 0 143 35 -4 35
-4 0 -139z m233 125 c12 -15 41 -48 64 -73 l43 -46 0 73 0 72 35 0 35 0 0
-138 c0 -94 -4 -142 -12 -150 -20 -20 -64 -14 -75 11 -6 12 -32 49 -57 82
l-47 60 7 -83 7 -82 -42 0 -41 0 0 150 0 150 31 0 c21 0 37 -8 52 -26z m837
-34 l0 -60 50 0 49 0 3 58 c3 56 3 57 33 57 l30 0 3 -147 3 -148 -36 0 -35 0
0 60 c0 65 -1 65 -59 54 -30 -6 -31 -8 -31 -60 l0 -54 -40 0 -40 0 2 150 3
150 33 0 32 0 0 -60z m-360 20 c0 -29 -1 -30 -50 -30 -42 0 -50 -3 -50 -19 0
-21 19 -31 61 -31 24 0 29 -4 29 -24 0 -26 -16 -36 -62 -36 -25 0 -29 -3 -26
-22 3 -20 10 -23 51 -26 46 -3 48 -4 45 -30 -3 -27 -4 -27 -85 -30 l-83 -3 0
141 0 140 85 0 85 0 0 -30z m900 21 c0 -5 -4 -21 -10 -35 -9 -24 -14 -26 -75
-26 -49 0 -65 -3 -65 -14 0 -18 22 -26 71 -26 37 0 39 -2 39 -30 0 -29 -1 -30
-50 -30 -42 0 -50 -3 -50 -19 0 -22 26 -31 88 -31 40 0 42 -2 42 -29 l0 -30
-100 -3 -99 -3 -3 143 -3 142 108 0 c59 0 107 -4 107 -9z m330 -8 c46 -31 64
-78 48 -123 -5 -16 -18 -32 -29 -35 -24 -8 -24 -32 1 -70 27 -41 26 -45 -17
-45 -35 1 -40 5 -58 43 -13 28 -27 43 -42 45 -21 3 -23 -1 -23 -37 l0 -41 -41
0 -42 0 6 68 c4 37 7 100 7 140 l0 72 83 0 c61 0 89 -4 107 -17z m420 -18 l0
-35 -70 0 c-64 0 -70 -2 -70 -20 0 -18 5 -20 53 -18 l52 3 0 -35 0 -35 -52 -3
c-36 -2 -53 -7 -53 -16 0 -19 23 -26 86 -26 l55 0 -3 -32 -3 -33 -105 4 c-58
2 -106 4 -108 6 -1 1 0 64 4 139 l7 136 104 0 103 0 0 -35z m-3280 -76 l0
-102 83 6 c45 4 99 7 120 7 l37 0 0 51 c0 67 -13 89 -52 89 -23 0 -39 -8 -54
-27 -27 -34 -41 -24 -24 17 18 44 47 60 107 60 74 0 85 -19 91 -161 l5 -109
-182 0 -181 0 0 128 c0 71 3 132 7 135 3 4 15 7 25 7 16 0 18 -10 18 -101z
m-650 -14 c0 -28 -4 -35 -19 -35 -11 0 -23 5 -26 10 -3 6 -1 10 6 10 6 0 9 8
6 19 -3 13 1 21 12 24 9 3 17 5 19 6 1 0 2 -15 2 -34z"/>
<path d="M4965 7447 c-68 -32 -127 -102 -166 -195 -29 -67 -33 -91 -37 -184
-5 -138 18 -223 78 -289 l40 -44 -26 57 c-15 35 -24 71 -22 90 3 32 4 31 34
-32 17 -36 55 -91 84 -123 50 -55 52 -58 34 -72 -19 -15 -19 -15 0 -30 42 -32
146 -10 218 47 91 72 139 194 139 353 1 196 -71 349 -193 411 -72 37 -123 40
-183 11z"/>
<path d="M2345 7070 c-28 -11 -70 -58 -95 -107 -43 -84 -45 -228 -3 -305 l18
-33 5 43 5 42 33 -63 c18 -35 46 -76 62 -92 l29 -28 35 26 c107 82 136 273 64
417 -45 89 -97 124 -153 100z"/>
<path d="M2480 5695 l0 -176 453 3 453 3 42 28 c85 55 106 165 48 242 -55 72
-39 70 -543 73 l-453 3 0 -176z"/>
<path d="M2803 5213 c26 -2 68 -2 95 0 26 2 4 3 -48 3 -52 0 -74 -1 -47 -3z"/>
<path d="M3013 5213 c9 -2 25 -2 35 0 9 3 1 5 -18 5 -19 0 -27 -2 -17 -5z"/>
<path d="M3225 5210 c39 -4 169 -7 290 -7 193 0 206 1 100 7 -166 10 -484 9
-390 0z"/>
<path d="M1942 5190 c0 -14 2 -19 5 -12 2 6 2 18 0 25 -3 6 -5 1 -5 -13z"/>
<path d="M2188 5203 c83 -2 221 -2 305 0 83 1 15 3 -153 3 -168 0 -236 -2
-152 -3z"/>
<path d="M3760 5190 c0 -5 14 -10 30 -10 17 0 42 -7 55 -16 13 -9 28 -13 33
-10 6 3 15 -1 22 -9 6 -7 19 -11 27 -8 12 5 14 3 8 -7 -5 -9 -4 -11 3 -6 12 7
52 -10 64 -28 5 -8 8 -7 8 2 0 22 -90 70 -161 86 -80 19 -89 19 -89 6z"/>
<path d="M2408 5128 c-7 -5 34 -5 97 -2 61 4 112 8 114 11 10 8 -198 0 -211
-9z"/>
<path d="M3291 5136 c2 -2 40 -6 84 -8 45 -3 67 -2 50 2 -30 8 -142 13 -134 6z"/>
<path d="M3495 5099 c22 -12 50 -30 61 -41 16 -15 24 -16 29 -7 5 8 4 10 -3 5
-7 -4 -12 -4 -12 1 0 11 -60 50 -90 57 -16 4 -10 -1 15 -15z"/>
<path d="M2408 5085 c-3 -11 -5 -81 -3 -155 4 -170 -1 -210 -26 -210 -15 0
-19 -8 -19 -40 0 -33 3 -40 19 -40 11 0 22 -8 25 -18 6 -17 31 -18 497 -14
370 3 502 7 535 17 24 7 44 9 44 4 0 -5 -5 -9 -12 -9 -6 0 -9 -2 -6 -5 10 -11
59 7 55 19 -3 7 4 18 15 25 18 11 20 11 15 -3 -4 -9 -2 -16 3 -16 6 0 10 11
10 23 0 15 6 24 15 24 9 0 18 -11 21 -24 5 -19 13 -23 45 -23 l39 0 0 60 0 60
-36 0 c-25 0 -33 3 -28 12 9 15 12 130 3 120 -4 -4 -9 -35 -11 -69 -5 -79 -39
-125 -123 -168 l-59 -30 -460 -3 c-254 -2 -476 0 -493 3 -27 5 -33 11 -34 33
0 24 -1 25 -10 7 -6 -14 -7 -7 -4 25 7 62 -9 420 -17 395z"/>
<path d="M2484 5044 c3 -9 6 -87 6 -175 l0 -159 453 0 c450 0 453 0 497 23
130 65 128 248 -4 308 -38 17 -75 19 -500 19 -414 0 -458 -2 -452 -16z"/>
<path d="M3586 5031 c-3 -4 1 -17 10 -27 14 -18 15 -18 5 2 -6 12 -7 24 -4 28
3 3 4 6 0 6 -3 0 -8 -4 -11 -9z"/>
<path d="M4122 4900 c0 -14 2 -19 5 -12 2 6 2 18 0 25 -3 6 -5 1 -5 -13z"/>
<path d="M4132 4815 c0 -16 2 -22 5 -12 2 9 2 23 0 30 -3 6 -5 -1 -5 -18z"/>
<path d="M4045 4549 c-4 -6 -5 -12 -2 -15 2 -3 7 2 10 11 7 17 1 20 -8 4z"/>
<path d="M3400 4460 c0 -13 -7 -20 -20 -20 -18 0 -20 -7 -20 -60 l0 -60 -67
-1 c-135 -3 -12 -17 152 -18 165 -1 267 13 322 43 l28 16 -30 -6 c-16 -4 -40
-10 -51 -15 -12 -4 -24 -6 -27 -3 -2 2 -16 0 -31 -6 -21 -8 -35 -6 -66 10 -22
11 -46 20 -55 20 -11 0 -15 11 -15 40 0 33 -3 40 -20 40 -13 0 -20 7 -20 20 0
17 -7 20 -40 20 -33 0 -40 -3 -40 -20z"/>
<path d="M2360 4380 c0 -13 -7 -20 -20 -20 -13 0 -20 -7 -20 -19 0 -22 -33
-30 -124 -32 -33 -1 -74 -5 -91 -10 -24 -6 -19 -7 20 -4 81 7 499 8 515 1 9
-4 81 -5 160 -3 l145 3 -152 2 c-94 1 -153 6 -153 12 0 6 -18 10 -40 10 l-40
0 0 40 0 40 -100 0 c-93 0 -100 -1 -100 -20z"/>
<path d="M2950 4306 c0 -2 16 -6 35 -8 19 -2 35 0 35 4 0 4 -16 8 -35 8 -19 0
-35 -2 -35 -4z"/>
<path d="M3168 4303 c6 -2 18 -2 25 0 6 3 1 5 -13 5 -14 0 -19 -2 -12 -5z"/>
<path d="M4802 5148 l2 -53 3 45 4 46 152 3 c83 1 154 4 156 7 2 2 -68 4 -157
4 l-162 0 2 -52z"/>
<path d="M4802 5060 c0 -14 2 -19 5 -12 2 6 2 18 0 25 -3 6 -5 1 -5 -13z"/>
<path d="M4804 4820 c0 -102 2 -143 3 -92 2 50 2 134 0 185 -1 50 -3 9 -3 -93z"/>
<path d="M5299 4600 c-6 -85 2 -126 28 -143 17 -10 17 -30 1 -21 -7 4 -4 -2 6
-14 20 -23 32 -30 21 -12 -16 26 14 4 49 -36 63 -72 57 -75 -161 -73 -104 1
-246 6 -318 11 -71 5 -156 8 -187 8 -65 -1 -80 4 -71 25 3 10 20 15 49 15 43
0 43 0 42 35 -1 36 6 50 24 50 6 0 12 8 14 17 2 14 -2 16 -14 9 -31 -18 -134
-129 -128 -139 3 -5 -4 -13 -17 -17 -33 -12 244 -23 583 -23 l295 -1 -36 32
c-19 18 -64 63 -100 100 l-64 69 -5 96 -5 97 -6 -85z"/>
<path d="M8148 5213 c6 -2 18 -2 25 0 6 3 1 5 -13 5 -14 0 -19 -2 -12 -5z"/>
<path d="M7693 5203 c31 -2 83 -2 115 0 31 2 5 3 -58 3 -63 0 -89 -1 -57 -3z"/>
<path d="M8278 5168 c5 -71 10 -77 11 -15 0 31 -2 57 -7 57 -4 0 -6 -19 -4
-42z"/>
<path d="M6092 5158 l1 -43 4 38 c4 31 8 37 28 37 13 0 27 -4 30 -10 8 -13 45
-13 45 0 0 5 28 11 63 13 36 2 13 4 -55 5 l-118 2 2 -42z"/>
<path d="M6378 5193 c12 -2 32 -2 45 0 12 2 2 4 -23 4 -25 0 -35 -2 -22 -4z"/>
<path d="M6551 5023 c-1 -84 -4 -103 -16 -103 -8 0 -15 -9 -15 -20 0 -13 -7
-20 -20 -20 -13 0 -20 7 -20 20 0 13 -7 20 -20 20 -13 0 -20 7 -20 20 0 13 -7
20 -20 20 -13 0 -20 -7 -20 -20 0 -18 -7 -20 -80 -20 -73 0 -80 -2 -80 -20 0
-13 -7 -20 -20 -20 -19 0 -20 -7 -20 -100 l0 -100 60 0 c53 0 60 -2 60 -20 0
-17 7 -20 40 -20 33 0 40 -3 40 -20 0 -17 7 -20 40 -20 l40 0 0 40 c0 33 3 40
20 40 13 0 20 7 20 20 0 17 7 20 40 20 22 0 40 -4 40 -10 0 -5 9 -10 20 -10
11 0 20 -4 20 -10 0 -5 9 -10 20 -10 11 0 20 -7 20 -15 0 -8 8 -15 18 -16 9 0
37 -2 62 -5 l45 -4 -47 19 c-79 32 -113 58 -140 108 -38 70 -48 114 -57 243
l-8 115 -2 -102z"/>
<path d="M7605 5111 c-70 -6 -70 -6 50 -14 66 -5 136 -10 155 -13 32 -4 33 -3
10 6 -17 8 -21 13 -12 19 14 9 -107 10 -203 2z"/>
<path d="M6093 4898 c5 -175 17 -258 37 -258 5 0 7 -6 4 -14 -3 -8 0 -17 6
-21 14 -9 7 31 -14 69 -17 34 -13 46 15 46 17 0 19 7 19 80 0 73 -2 80 -20 80
-12 0 -20 7 -21 18 0 15 -2 14 -9 -3 -6 -13 -9 15 -7 83 1 56 -2 102 -7 102
-5 0 -6 -80 -3 -182z m26 -130 l-1 -43 -8 35 c-8 32 -6 50 6 50 2 0 4 -19 3
-42z"/>
<path d="M7810 5019 c-40 -7 -39 -9 8 -13 18 -2 35 0 37 4 8 14 -7 17 -45 9z"/>
<path d="M7793 4935 c0 -22 2 -30 4 -17 2 12 2 30 0 40 -3 9 -5 -1 -4 -23z"/>
<path d="M6560 4671 c0 -25 4 -31 21 -31 16 0 20 5 17 27 -2 17 -10 29 -20 31
-14 3 -18 -3 -18 -27z"/>
<path d="M6962 4614 c10 -9 543 -15 588 -6 31 7 -53 10 -274 10 -175 1 -317
-1 -314 -4z"/>
<path d="M6265 4450 c10 -11 20 -20 23 -20 3 0 -3 9 -13 20 -10 11 -20 20 -23
20 -3 0 3 -9 13 -20z"/>
<path d="M7520 4380 c0 -13 -7 -20 -20 -20 -11 0 -20 -7 -20 -15 0 -10 -11
-15 -35 -15 -19 0 -35 -3 -35 -8 0 -4 -92 -7 -206 -7 -113 0 -195 -3 -182 -6
13 -4 -46 -7 -131 -7 -85 -1 -156 -4 -160 -7 -3 -4 242 -5 544 -2 479 3 560 6
625 21 41 10 88 24 105 32 16 8 21 12 10 8 -44 -13 -202 -44 -228 -44 -21 0
-32 8 -47 33 -27 45 -57 57 -145 57 -68 0 -75 -2 -75 -20z"/>
<path d="M6410 4369 c59 -29 169 -57 250 -65 47 -4 61 -3 50 5 -10 7 -11 11
-2 11 6 0 12 9 12 20 0 18 -7 20 -79 20 -44 0 -82 -4 -85 -9 -3 -4 6 -6 19 -3
19 3 25 0 25 -13 0 -14 -3 -15 -15 -5 -8 6 -18 9 -24 6 -5 -3 -17 -3 -26 0
-13 5 -14 8 -3 15 10 7 9 9 -4 9 -10 0 -18 -4 -18 -9 0 -6 -24 -2 -52 9 -86
30 -95 31 -48 9z"/>
<path d="M1121 4971 c-57 -16 -25 -41 52 -41 30 0 37 4 37 19 0 29 -35 38 -89
22z"/>
<path d="M8962 5053 c4 -23 77 -31 89 -11 16 24 9 28 -42 28 -43 0 -50 -3 -47
-17z"/>
<path d="M8973 4974 c-7 -3 -13 -14 -13 -25 0 -16 7 -19 46 -19 41 0 45 2 42
23 -2 17 -10 22 -33 24 -16 1 -36 0 -42 -3z"/>
<path d="M9242 5053 c6 -31 88 -29 88 2 0 11 -12 15 -46 15 -38 0 -45 -3 -42
-17z"/>
<path d="M9230 4951 c0 -23 49 -35 86 -21 40 15 13 40 -42 40 -36 0 -44 -3
-44 -19z"/>
<path d="M4186 3743 c-10 -21 -42 -96 -71 -168 -29 -71 -69 -167 -88 -212
l-35 -81 88 -7 c79 -6 340 2 340 11 0 2 -15 38 -34 81 -18 43 -64 150 -101
238 -38 88 -71 163 -75 168 -3 4 -14 -10 -24 -30z"/>
<path d="M5680 3633 l0 -133 274 0 c268 0 274 0 307 23 68 45 61 169 -11 212
-32 18 -56 20 -303 25 l-267 5 0 -132z"/>
<path d="M3940 3359 c0 -5 5 -7 10 -4 6 3 10 8 10 11 0 2 -4 4 -10 4 -5 0 -10
-5 -10 -11z"/>
<path d="M3660 3335 c-5 -13 -23 -57 -41 -97 -17 -40 -38 -89 -46 -108 -14
-31 -14 -33 1 -21 9 7 16 21 16 31 0 9 9 29 20 43 11 14 20 33 20 42 0 10 8
32 19 49 19 32 35 86 26 86 -3 0 -10 -11 -15 -25z"/>
<path d="M3706 3350 c7 -7 19 -7 35 -1 23 9 22 10 -10 10 -24 1 -32 -2 -25 -9z"/>
<path d="M4480 3344 c0 -8 5 -12 10 -9 6 4 8 11 5 16 -9 14 -15 11 -15 -7z"/>
<path d="M4533 3353 c15 -2 37 -2 50 0 12 2 0 4 -28 4 -27 0 -38 -2 -22 -4z"/>
<path d="M5408 3353 c7 -3 16 -2 19 1 4 3 -2 6 -13 5 -11 0 -14 -3 -6 -6z"/>
<path d="M5573 3353 c32 -2 81 -2 110 0 29 2 3 3 -58 3 -60 0 -84 -1 -52 -3z"/>
<path d="M5885 3351 l-40 -7 45 -8 c62 -10 77 -10 139 3 68 14 387 15 396 1 9
-15 69 -12 91 5 17 13 -16 14 -286 13 -168 0 -323 -4 -345 -7z"/>
<path d="M3728 3323 c6 -2 18 -2 25 0 6 3 1 5 -13 5 -14 0 -19 -2 -12 -5z"/>
<path d="M3902 3283 c-9 -21 -22 -41 -29 -46 -6 -4 -15 -22 -18 -40 -4 -17
-14 -45 -23 -62 -8 -16 -17 -42 -18 -56 l-3 -26 97 -6 c125 -9 403 -7 512 2
47 5 77 9 68 9 -10 1 -18 7 -18 12 0 6 -7 10 -15 10 -8 0 -15 9 -15 20 0 16
-7 20 -30 20 -37 0 -38 -7 -5 -20 35 -13 33 -34 -2 -25 -33 8 -181 7 -194 -1
-14 -8 -89 6 -89 17 0 5 9 9 20 9 13 0 20 7 20 20 0 11 5 20 10 20 24 0 7 21
-22 27 -32 7 -32 7 -8 14 14 4 34 7 45 7 15 0 14 -2 -5 -7 -17 -5 -3 -8 40 -7
36 0 116 -3 178 -6 61 -4 112 -3 112 1 0 27 -38 31 -323 31 l-297 1 7 27 c3
15 12 42 20 60 18 45 7 40 -15 -5z m251 -230 c-7 -2 -19 -2 -25 0 -7 3 -2 5
12 5 14 0 19 -2 13 -5z"/>
<path d="M4501 3300 c14 -31 19 -36 19 -24 0 6 -7 19 -16 30 -14 18 -14 18 -3
-6z"/>
<path d="M6367 3256 c-3 -8 -3 -16 1 -18 4 -2 34 -43 66 -91 33 -49 64 -91 69
-94 5 -3 -9 22 -32 56 -23 34 -53 84 -67 111 -27 55 -29 57 -37 36z"/>
<path d="M5648 3243 c6 -2 18 -2 25 0 6 3 1 5 -13 5 -14 0 -19 -2 -12 -5z"/>
<path d="M4540 3060 c-24 -8 -23 -8 8 -9 17 -1 32 4 32 9 0 11 -5 11 -40 0z"/>
<path d="M3802 3020 c0 -14 2 -19 5 -12 2 6 2 18 0 25 -3 6 -5 1 -5 -13z"/>
<path d="M5621 3024 c0 -11 3 -14 6 -6 3 7 2 16 -1 19 -3 4 -6 -2 -5 -13z"/>
<path d="M5623 2965 c0 -22 2 -30 4 -17 2 12 2 30 0 40 -3 9 -5 -1 -4 -23z"/>
<path d="M6590 2942 c24 -29 40 -56 36 -59 -6 -6 23 -32 37 -33 11 0 -21 44
-73 100 l-42 45 42 -53z"/>
<path d="M3493 2943 c-3 -10 -16 -32 -29 -49 -13 -17 -20 -34 -17 -38 4 -3 27
-6 52 -5 33 0 40 3 26 8 -11 5 -25 6 -32 4 -11 -4 -5 38 12 80 4 9 4 17 1 17
-4 0 -9 -8 -13 -17z"/>
<path d="M4950 2931 c0 -6 4 -13 10 -16 6 -3 7 1 4 9 -7 18 -14 21 -14 7z"/>
<path d="M3736 2888 c-15 -23 -20 -35 -11 -28 15 13 50 70 42 70 -2 0 -16 -19
-31 -42z"/>
<path d="M4696 2907 c3 -10 9 -15 12 -12 3 3 0 11 -7 18 -10 9 -11 8 -5 -6z"/>
<path d="M5629 2889 c0 -21 -3 -28 -7 -19 -6 14 -9 14 -24 -2 -17 -17 -16 -18
32 -18 28 0 50 1 50 3 0 2 -11 18 -25 37 l-25 34 -1 -35z"/>
<path d="M4980 2871 c0 -5 5 -13 10 -16 6 -3 10 -2 10 4 0 5 -4 13 -10 16 -5
3 -10 2 -10 -4z"/>
<path d="M5388 2853 c28 -2 76 -2 105 0 28 2 5 3 -53 3 -58 0 -81 -1 -52 -3z"/>
<path d="M1875 3361 l-30 -7 25 -7 c36 -10 170 -9 170 2 0 19 -101 26 -165 12z"/>
<path d="M2133 3258 c1 -60 5 -108 10 -108 5 0 7 -6 4 -14 -7 -18 32 -78 53
-82 8 -1 29 -5 45 -9 l30 -7 -30 17 c-76 42 -94 78 -105 208 l-8 102 1 -107z"/>
<path d="M2882 3143 c-8 -26 -25 -57 -43 -74 -25 -24 -27 -28 -10 -26 11 0 19
6 18 12 -1 5 3 9 10 8 19 -4 76 24 103 50 14 13 34 28 45 34 17 10 12 12 -30
18 -28 4 -57 11 -66 16 -12 6 -18 -2 -27 -38z"/>
<path d="M3098 3148 c18 -18 142 -20 142 -2 0 11 -18 14 -77 14 -59 0 -74 -3
-65 -12z"/>
<path d="M1870 3035 c0 -13 52 -86 57 -81 3 2 -9 23 -26 47 -17 23 -31 38 -31
34z"/>
<path d="M2288 3033 c6 -2 18 -2 25 0 6 3 1 5 -13 5 -14 0 -19 -2 -12 -5z"/>
<path d="M2397 3019 c36 -6 127 -6 215 -1 l153 9 -215 0 c-165 0 -200 -2 -153
-8z"/>
<path d="M3154 2958 l-19 -23 23 19 c21 18 27 26 19 26 -2 0 -12 -10 -23 -22z"/>
<path d="M1962 2924 c10 -10 20 -16 22 -13 3 3 -5 11 -17 18 -21 13 -21 12 -5
-5z"/>
<path d="M3008 2883 c7 -3 16 -2 19 1 4 3 -2 6 -13 5 -11 0 -14 -3 -6 -6z"/>
<path d="M2968 2873 c7 -3 16 -2 19 1 4 3 -2 6 -13 5 -11 0 -14 -3 -6 -6z"/>
<path d="M2128 2863 c7 -3 16 -2 19 1 4 3 -2 6 -13 5 -11 0 -14 -3 -6 -6z"/>
<path d="M2213 2853 c15 -2 37 -2 50 0 12 2 0 4 -28 4 -27 0 -38 -2 -22 -4z"/>
<path d="M2668 2853 c39 -2 105 -2 145 0 39 1 7 3 -73 3 -80 0 -112 -2 -72 -3z"/>
<path d="M7422 3358 c111 -7 177 -6 195 0 20 8 -25 10 -167 10 l-195 -1 167
-9z"/>
<path d="M7753 3363 c42 -2 112 -2 155 0 42 1 7 3 -78 3 -85 0 -120 -2 -77 -3z"/>
<path d="M8250 3350 c8 -5 22 -10 30 -10 13 0 13 1 0 10 -8 5 -22 10 -30 10
-13 0 -13 -1 0 -10z"/>
<path d="M8294 3329 c-4 -7 -3 -9 4 -5 5 3 13 0 15 -6 4 -9 6 -10 6 -1 1 17
-16 25 -25 12z"/>
<path d="M8020 3135 c0 -15 -14 -41 -34 -63 l-34 -37 -277 -3 c-256 -3 -280
-1 -316 16 -45 22 -42 9 3 -14 25 -13 74 -16 303 -16 281 0 294 2 338 42 17
17 37 100 23 100 -3 0 -6 -11 -6 -25z"/>
<path d="M8332 3140 c0 -14 2 -19 5 -12 2 6 2 18 0 25 -3 6 -5 1 -5 -13z"/>
<path d="M7128 3123 c23 -2 61 -2 85 0 23 2 4 4 -43 4 -47 0 -66 -2 -42 -4z"/>
<path d="M8140 2885 c-19 -7 -28 -14 -20 -14 8 0 29 6 45 14 39 17 21 18 -25
0z"/>
<path d="M7925 2860 l-110 -6 113 -2 c69 -1 112 2 112 8 0 6 -1 9 -2 8 -2 -1
-52 -5 -113 -8z"/>
<path d="M8063 2863 c9 -2 23 -2 30 0 6 3 -1 5 -18 5 -16 0 -22 -2 -12 -5z"/>
<path d="M7398 2853 c56 -2 148 -2 205 0 56 1 10 3 -103 3 -113 0 -159 -2
-102 -3z"/>
<path d="M6410 2230 c0 -29 2 -30 45 -30 32 0 47 5 51 15 10 25 -16 45 -57 45
-37 0 -39 -2 -39 -30z"/>
</g>
</svg>
